<svg xmlns="http://www.w3.org/2000/svg" xmlns:xlink="http://www.w3.org/1999/xlink" viewBox="0,0,256,256" width="128px" height="128px" fill-rule="nonzero"><defs><linearGradient x1="32" y1="7" x2="32" y2="57" gradientUnits="userSpaceOnUse" id="color-1"><stop offset="0" stop-color="#a3a1ff"></stop><stop offset="1" stop-color="#3a3897"></stop></linearGradient><linearGradient x1="33" y1="13.833" x2="33" y2="50.343" gradientUnits="userSpaceOnUse" id="color-2"><stop offset="0" stop-color="#ffffff"></stop><stop offset="1" stop-color="#7574cb"></stop></linearGradient><linearGradient x1="33" y1="13.833" x2="33" y2="50.343" gradientUnits="userSpaceOnUse" id="color-3"><stop offset="0" stop-color="#ffffff"></stop><stop offset="1" stop-color="#7574cb"></stop></linearGradient><linearGradient x1="33" y1="13.833" x2="33" y2="50.343" gradientUnits="userSpaceOnUse" id="color-4"><stop offset="0" stop-color="#ffffff"></stop><stop offset="1" stop-color="#7574cb"></stop></linearGradient><linearGradient x1="26.5" y1="13.833" x2="26.5" y2="50.343" gradientUnits="userSpaceOnUse" id="color-5"><stop offset="0" stop-color="#ffffff"></stop><stop offset="1" stop-color="#7574cb"></stop></linearGradient><linearGradient x1="18.5" y1="13.833" x2="18.5" y2="50.343" gradientUnits="userSpaceOnUse" id="color-6"><stop offset="0" stop-color="#ffffff"></stop><stop offset="1" stop-color="#7574cb"></stop></linearGradient><linearGradient x1="37.596" y1="13.833" x2="37.596" y2="50.343" gradientUnits="userSpaceOnUse" id="color-7"><stop offset="0" stop-color="#ffffff"></stop><stop offset="1" stop-color="#7574cb"></stop></linearGradient><linearGradient x1="43.959" y1="13.833" x2="43.959" y2="50.343" gradientUnits="userSpaceOnUse" id="color-8"><stop offset="0" stop-color="#ffffff"></stop><stop offset="1" stop-color="#7574cb"></stop></linearGradient></defs><g fill="none" fill-rule="nonzero" stroke="none" stroke-width="1" stroke-linecap="butt" stroke-linejoin="miter" stroke-miterlimit="10" stroke-dasharray="" stroke-dashoffset="0" font-family="none" font-weight="none" font-size="none" text-anchor="none" style="mix-blend-mode: normal"><g transform="scale(4,4)"><path d="M55,57h-46c-1.103,0 -2,-0.897 -2,-2v-46c0,-1.103 0.897,-2 2,-2h46c1.103,0 2,0.897 2,2v46c0,1.103 -0.897,2 -2,2zM9,9v46h46.002l-0.002,-46z" fill="url(#color-1)"></path><path d="M33,31l2,2l-2,2l-2,-2z" fill="url(#color-2)"></path><rect x="30" y="25" width="6" height="3" fill="url(#color-3)"></rect><path d="M38,14h-10c0,0 1.5,3 2,9h6c0.5,-6 2,-9 2,-9z" fill="url(#color-4)"></path><path d="M28,30v6h-3v-6z" fill="url(#color-5)"></path><path d="M14,28v10c0,0 3,-1.5 9,-2v-6c-6,-0.5 -9,-2 -9,-2z" fill="url(#color-6)"></path><path d="M34.414,38.657l4.243,-4.243l2.121,2.122l-4.242,4.242z" fill="url(#color-7)"></path><path d="M42.899,49.971l7.071,-7.071c0,0 -3.182,-1.061 -7.778,-4.95l-4.243,4.243c3.89,4.596 4.95,7.778 4.95,7.778z" fill="url(#color-8)"></path></g></g></svg>